<?xml version="1.0" encoding="UTF-8" standalone="no"?>
<!-- Created with Inkscape (http://www.inkscape.org/) -->

<svg
   width="90.765518mm"
   height="109.02669mm"
   viewBox="0 0 90.765518 109.02669"
   version="1.1"
   id="svg331"
   inkscape:version="1.2.2 (b0a8486541, 2022-12-01)"
   sodipodi:docname="logo_ink.svg"
   xmlns:inkscape="http://www.inkscape.org/namespaces/inkscape"
   xmlns:sodipodi="http://sodipodi.sourceforge.net/DTD/sodipodi-0.dtd"
   xmlns="http://www.w3.org/2000/svg"
   xmlns:svg="http://www.w3.org/2000/svg">
  <sodipodi:namedview
     id="namedview333"
     pagecolor="#ffffff"
     bordercolor="#666666"
     borderopacity="1.0"
     inkscape:showpageshadow="2"
     inkscape:pageopacity="0.0"
     inkscape:pagecheckerboard="0"
     inkscape:deskcolor="#d1d1d1"
     inkscape:document-units="mm"
     showgrid="true"
     showguides="true"
     inkscape:zoom="0.5"
     inkscape:cx="-306"
     inkscape:cy="462"
     inkscape:window-width="1920"
     inkscape:window-height="1080"
     inkscape:window-x="0"
     inkscape:window-y="0"
     inkscape:window-maximized="1"
     inkscape:current-layer="layer2">
    <inkscape:grid
       type="xygrid"
       id="grid471"
       originx="-4.263027"
       originy="-3.1409999" />
  </sodipodi:namedview>
  <defs
     id="defs328" />
  <ellipse
     style="display:inline;fill:#000000;fill-opacity:1;stroke:none;stroke-width:0.309556;stroke-miterlimit:4;stroke-dasharray:none;stroke-opacity:1"
     id="path469"
     cx="45.382812"
     cy="39.322613"
     rx="44.578712"
     ry="38.871181" />
  <g
     inkscape:groupmode="layer"
     id="layer3"
     inkscape:label="Calque 2"
     transform="matrix(0.98108608,0,0,1.0098112,-2.2806486,-3.8925999)"
     style="display:inline">
    <path
       d="m 38.255143,66.905903 c -3.95288,-1.11469 -7.799125,-4.02166 -10.566405,-7.98618 -1.2663,-1.81451 -1.78541,-5.18266 -1.0242,-6.64845 0.72707,-1.40044 3.92324,-4.16348 5.979055,-5.1689 2.50693,-1.22581 4.00791,-1.49992 8.17192,-1.49331 6.03885,0.01 7.72848,0.53102 12.39467,3.82508 2.62626,1.85394 3.51208,3.28824 3.50785,5.68034 -0.007,4.06771 -4.85431,9.42605 -10.28489,11.36994 -2.19154,0.78449 -6.16426,0.98901 -8.178,0.42148 z m 4.87098,-4.88526 c 1.4343,-1.0549 2.14868,-2.39501 1.79943,-3.37609 -0.27279,-0.76623 -0.58081,-1.04169 -2.46034,-0.49149 -0.38705,0.13076 -0.99004,0.13502 -1.55867,0.0442 -1.99741,-0.32764 -2.25862,-0.4313 -2.67725,0.0187 -0.45351,0.48745 -0.17894,1.72831 1.22494,3.21183 1.50151,1.5867 2.17302,1.69518 3.67189,0.59293 z m -5.98461,-5.54091 c 1.90817,-1.37689 0.01,-3.99706 -2.8964,-3.99706 -0.81862,0 -1.20266,0.30231 -1.70008,0.79946 -0.781585,0.78158 -0.745725,1.30663 0.32663,2.47397 1.37557,1.4978 2.85036,1.74757 4.26985,0.72363 z m 13.13153,-0.39026 c 0.6358,-0.63579 1.15597,-1.29963 1.15597,-1.47558 0,-0.17595 -0.34819,-0.66781 -0.77338,-1.09299 -0.64876,-0.64876 -0.9869,-0.77338 -2.09629,-0.77338 -3.79625,0 -3.99574,4.37303 -0.20453,4.47701 0.56304,0.0154 1.06469,-0.28151 1.91823,-1.13506 z"
       fill="#e9f4f2"
       id="path335"
       style="display:inline;stroke-width:0.264583"
       sodipodi:nodetypes="cccccccsccsccssccscccscsscsc" />
    <path
       id="path337"
       style="display:inline;fill:#9ffaa0;fill-opacity:1;stroke-width:0.264583"
       d="m 52.221203,13.342913 c -0.54051,-1.6e-4 -1.09995,0.0108 -1.67921,0.0322 -4.38687,0.16242 -7.14738,1.43311 -9.58379,2.92205 -1.65857,1.33052 -2.71491,2.2385 -3.39686,2.88521 -0.76135,0.55264 -1.36239,1.09701 -2.04949,2.16212 -0.3344,0.65511 -0.46848,1.27845 -0.3645,1.69234 0.16193,0.6457 0.17561,0.63982 0.92967,-0.40121 1.0713,-1.47888 1.25742,-1.52135 1.45851,-0.3311 0.14023,0.82955 0.57108,1.44355 2.08847,2.97784 1.05145,1.06298 2.26242,2.2468 2.69105,2.63087 3.29644,2.95314 6.07799,4.09035 7.31413,2.97169 1.25915,-1.13953 1.07536,0.94425 -0.19279,2.29415 -0.31331,0.33364 -0.39185,0.79525 -0.2839,0.79525 0.42995,0 1.80951,-1.18972 2.10796,-2.09406 0.22915,-0.694 0.46906,-3.29577 0.35185,-7.34659 0,0 -0.25629,-5.03507 -0.16539,-5.44802 0.0909,-0.41295 0.31784,-0.68344 0.60574,-0.90374 0.2879,-0.22029 1.60376,-0.49133 2.25913,0.21238 0.65061,0.69831 0.73132,1.17154 1.65392,9.68014 0.29607,2.73071 0.28133,3.08293 -0.1891,4.48389 -0.65087,1.93834 -2.56647,3.9206 -4.8522,5.07445 -0.91679,0.46276 -2.27658,1.2013 -2.19698,1.2809 0.0796,0.0796 1.39313,-0.26723 2.09216,-0.4355 2.44792,-0.5887 5.57243,-4.3863 5.87564,-7.14087 0.16749,-1.52198 0.42546,-1.6317 1.13957,-1.08956 0.53896,0.40925 1.559986,2.97185 1.656286,4.24344 0.0386,0.50932 0.0999,1.04531 0.13642,1.19083 0.1434,0.57124 -0.13906,1.04691 -0.53884,1.4467 -0.382326,0.38206 -0.194706,0.66323 0.85119,1.90624 1.06257,1.26286 1.92545,2.58218 3.01235,4.60518 0.42492,0.79111 1.55494,1.55471 2.63206,1.77882 0.29104,0.0606 2.44141,0.0844 4.77846,0.0527 4.16481,-0.0563 4.28389,-0.0742 5.99415,-0.89043 3.10568,-1.48246 5.04869,-4.17606 6.41606,-8.89411 0.54491,-2.88304 0.52068,-4.2837 0.11114,-4.81806 -0.75299,-1.64035 -3.54489,-1.62698 -5.36208,-2.03418 -6.38278,-1.20753 -7.32123,-1.79202 -8.73102,-5.43932 -1.55643,-4.02693 -2.36016,-5.16742 -4.90014,-6.95255 -2.96666,-2.08511 -6.444696,-3.09866 -11.669626,-3.10014 z m 10.696766,10.0358 c 2.67572,0 3.64093,2.70968 1.48431,4.16713 -1.04219,0.70446 -1.21774,0.71886 -2.25755,0.18371 -2.59794,-1.33694 -2.0623,-4.35084 0.77324,-4.35084 z"
       sodipodi:nodetypes="scccccccccscsccsscsscsccccccscccccccccssccs" />
    <path
       d="m 55.919501,49.054697 c -0.509925,-0.553539 -1.380144,-1.306096 -1.933531,-1.672669 -1.268359,-0.83988 -4.872365,-2.285061 -5.698613,-2.285061 -0.378275,0 -0.582793,-0.134966 -0.519465,-0.34245 0.165296,-0.540953 2.452741,-2.029657 4.094615,-2.664498 1.981213,-0.765965 2.970637,-0.653182 3.56349,0.406254 0.677626,1.21083 1.596588,5.152141 1.502529,6.443175 l -0.08185,1.121308 z"
       style="display:inline;fill:#e93556;fill-opacity:0.851431;stroke-width:0.270553"
       id="path4120"
       sodipodi:nodetypes="ccsccsccc" />
    <path
       id="path339"
       style="display:inline;fill:#2ad6c8;fill-opacity:1;stroke-width:0.264583"
       d="m 31.133695,26.080203 c -0.20215,-0.002 -1.184477,0.66514 -2.182756,1.48201 -1.643608,1.38402 -1.61151,1.41877 -3.420564,2.88726 -3.711566,3.31734 -14.239861,12.0941 -15.5400199,12.95479 -0.512851,0.33928 -1.314921,0.5699 -2.019997,0.87098 1.003842,17.80747 18.4318819,31.91535 39.8505649,32.25878 l 0.35186,-0.72054 c 0.36671,-0.70934 1.43765,-5.1557 1.4485,-6.01401 0.002,-0.18202 -0.26397,-0.32541 -0.59152,-0.31932 -2.90037,0.72049 -5.14958,1.19936 -7.79924,1.05521 -2.67061,-0.11593 -10.598395,-2.22185 -15.031731,-7.16441 -1.45786,-1.72173 -2.021836,-2.38349 -3.161415,-5.37023 -1.361288,-3.63193 -1.587143,-11.85175 -0.419274,-15.25508 1.661048,-4.84107 4.379867,-6.48774 8.179014,-4.95316 2.188376,0.88398 4.279176,2.16384 6.039446,3.69683 l 1.44271,1.25684 2.69684,-0.16836 c 1.48299,-0.0926 2.90007,-0.25348 3.09745,-0.40985 0.25056,-0.19844 0.27014,-0.66815 0.16246,-1.4529 -0.12277,-0.8964 -0.0615,-1.17721 0.30234,-1.38068 0.39899,-0.2233 0.34043,-0.33484 -0.33188,-0.59043 -0.42333,-0.16113 -1.65001,-0.57092 -2.3086,-1.0103 -3.32714,-2.31245 -5.08814,-4.07288 -6.62096,-5.56163 -0.78554,-0.86783 -1.95644,-2.59308 -2.60203,-3.83347 -0.64558,-1.2404 -1.339328,-2.25642 -1.541198,-2.25833 z"
       sodipodi:nodetypes="cccccccccccccsccsccccccsc" />
    <path
       d="m 62.251259,43.709353 c 0.0921,0.0728 0.18847,0.42191 0.36098,0.74947 0.17225,0.32729 0.52855,0.57345 0.6447,0.57345 0.39105,0 0.88418,-0.2542 0.62992,-0.559 -0.4408,-0.52838 -1.86287,-2.36669 -2.31742,-3.25013 -0.24156,-0.46884 -0.985,-1.46167 -1.6327,-2.22182 -1.079236,-1.26629 -1.159716,-1.39855 -0.77211,-1.7859 0.40349,-0.40349 0.63253,-1.02536 0.48886,-1.59818 -0.0365,-0.14552 -0.0828,-0.72448 -0.12141,-1.2338 -0.096,-1.27133 -1.212256,-3.93421 -1.751216,-4.34336 -0.71411,-0.54211 -0.96176,-0.26686 -1.12924,1.25529 -0.30295,2.75431 -3.43446,6.4942 -5.88265,7.08317 -0.69903,0.16801 -1.74229,0.50774 -1.66953,0.5805 0.073,0.073 1.55572,-0.156 2.61855,-0.47959 2.66462,-0.81121 4.20347,-0.65424 5.97301,0.6446 0.72443,0.53182 1.367266,1.09466 1.367266,1.3005 0.80847,1.04457 1.28569,1.30238 1.96127,2.03973 0.4834,0.76385 1.13964,1.17231 1.23172,1.24507 z"
       fill="#2ad6c8"
       id="path341"
       style="display:inline;stroke-width:0.264583"
       sodipodi:nodetypes="scsscccscsccsccccs" />
    <path
       d="m 37.308723,27.921033 c 1.80843,2.37345 5.01068,5.71616 6.19522,6.46758 0.90726,0.57521 1.50257,0.74983 2.55588,0.74983 1.76927,0 3.9762,-1.17613 4.92313,-2.60094 0.16248,-0.24448 0.29026,-0.69687 0.29026,-0.69687 l -0.94204,0.99275 c -0.52731,0.54583 -1.04722,0.99218 -1.15517,0.99218 -0.10768,0 0.0691,-0.28309 0.38267,-0.61673 1.26788,-1.34964 1.36234,-3.62217 0.10292,-2.48258 -1.23613,1.11866 -4.0169,-0.006 -7.31335,-2.95921 -0.42889,-0.38407 -1.63988,-1.56802 -2.69107,-2.63104 -1.51765,-1.53429 -1.94813,-2.14815 -2.0881,-2.97767 -0.20081,-1.18745 -0.3884,-1.14679 -1.44594,0.31295 -0.46832,0.64632 -0.80328,0.91104 -0.88768,0.70119 -0.0852,-0.21185 -0.14341,-0.16787 -0.15637,0.11841 -0.0336,0.72993 1.18348,3.25755 2.22964,4.63015 z"
       fill="#2ad6c8"
       id="path343"
       style="display:inline;stroke-width:0.264583"
       sodipodi:nodetypes="ccssccsccccccscc" />
    <path
       id="path349"
       style="display:inline;fill:#1ac23b;fill-opacity:1;stroke-width:0.264583"
       d="m 48.582043,8.8538934 c -2.73983,0.004 -5.47214,0.23876 -8.15531,0.70007 -0.49523,0.12236 -0.22271,0.13851 0.75638,0.0752 2.56144,-0.16555 5.45771,-0.21875 3.22252,0.28145 -1.73091,0.3873496 -2.00532,0.6680496 -1.01922,1.0429396 0.90381,0.34366 0.61304,0.62009 -1.08558,1.03218 -1.5666,0.38007 -4.64995,1.95003 -5.33627,2.71685 -0.31989,0.35727 0.28048,0.13253 1.76453,-0.66066 4.3307,-2.3149 9.12924,-3.48214 15.80918,-3.04078 4.544636,0.30028 6.475926,0.98671 10.278546,3.31661 3.94678,2.67949 5.28352,4.08356 6.84165,7.1859 1.6682,3.32142 2.60009,3.83412 8.44712,4.64663 1.78461,0.24799 3.31553,0.18996 3.93886,0.86485 l 0.53884,0.58339 c 0.55315,0.59891 0.67082,0.81385 0.78009,0.82595 0.035,0.004 0.0653,-3.4e-4 0.0948,-0.006 C 78.782619,16.485313 64.399709,8.8543234 48.582033,8.8534934 Z M 86.831889,31.186383 c -0.13179,0.045 0.0256,0.94168 -0.58309,4.24901 -1.03796,5.64117 -2.92779,8.86866 -6.5883,11.25017 -0.84375,0.54901 -1.91015,0.98164 -2.31759,1.17035 -2.91466,1.39663 -6.61839,1.77298 -9.83083,1.65498 -2.13906,-0.23269 -4.04017,0.69032 -4.96651,2.43488 -0.28072,0.55034 -0.8629,2.43644 -1.29364,4.19169 -1.26232,5.14428 -3.205536,8.35818 -7.000726,11.57922 -1.54331,1.32215 -3.24357,3.59002 -3.8746,5.86663 -0.17992,0.69136 -0.38187,1.46493 -0.44877,1.71945 -0.064,0.24329 -0.46927,0.75963 -0.5952,1.23126 22.162236,-0.34025 39.917556,-15.38316 39.928516,-33.8288 -5.6e-4,-3.92782 -0.82258,-7.82559 -2.42926,-11.51884 z m -32.449526,6.78111 c -0.75326,0.0138 -1.57993,0.17132 -2.53461,0.4662 -1.00436,0.31032 -2.06552,0.48797 -2.35868,0.39507 -0.51144,-0.16245 -0.47038,-0.14248 0.14531,-0.51025 0.42492,-0.25369 0.74046,-0.36371 0.11683,-0.2065 -0.36955,0.0882 -1.82132,0.22167 -3.34929,0.29047 -2.12166,0.0958 -2.697,0.19092 -2.19164,0.3801 0.58949,0.22093 0.68655,0.26892 0.27962,0.49805 -0.36381,0.20452 -0.42511,0.48583 -0.30234,1.38171 0.20187,1.47266 -0.12025,1.7161 -2.42716,1.83357 -1.74438,0.0889 -1.71494,0.0961 0.55518,0.14534 l 2.39555,0.0517 1.65708,-1.16677 c 2.49079,-1.75393 5.9133,-3.14732 7.74025,-3.15132 3.54383,-0.008 6.316506,3.53496 6.316506,8.07071 0,1.77879 0.18271,1.871 1.68342,0.85103 0.80566,-0.54716 1.5896,-0.75817 3.83194,-1.02963 l 6.33415,-0.8155 -3.90856,0.0155 c -1.86504,-0.0259 -3.86013,-0.33335 -4.22844,-0.75123 -0.27171,-0.33078 -0.11603,0.11205 -0.58805,0.23058 -0.46196,0.11589 -0.5361,-0.0156 -0.77263,-0.46477 -0.17304,-0.32861 -0.38985,-0.65746 -0.48195,-0.73026 -0.0921,-0.0728 -0.56322,-0.7573 -1.04661,-1.52141 -0.99159,-1.14547 -2.360576,-2.24693 -3.463746,-3.10424 -1.09571,-0.8045 -2.14669,-1.18103 -3.40213,-1.15808 z"
       sodipodi:nodetypes="ccsscsccscssssscccscccccccccccscccccccccccccsccccccsscccsc" />
    <path
       id="path351"
       style="display:inline;fill:#2ad6c8;fill-opacity:1;stroke-width:0.264583"
       d="M 44.830173,9.0161234 A 40.678901,33.851296 0 0 0 8.0857111,39.677743 c 0.793051,-0.29921 1.67122,-0.69123 1.769275,-0.69239 0.6363279,-0.007 4.3109299,-2.16901 5.3525979,-3.14876 0.582078,-0.54743 2.963161,-2.51815 5.291497,-4.3795 5.2726,-4.21453 9.088352,-7.91694 10.643568,-10.32749 1.806314,-2.79998 2.861804,-3.99484 5.070274,-5.73972 2.2868,-1.80671 4.4069,-2.95805 6.2828,-3.41282 1.66288,-0.40309 1.94881,-0.68167 1.04976,-1.02348 -0.9861,-0.37489 -0.71222,-0.65559 1.01869,-1.0429396 1.79567,-0.40185 1.90498,-0.75445 0.56939,-0.76352 -0.0937,-6.1e-4 -0.19555,-0.05703 -0.30339,-0.131 z" />
  </g>
  <path
     d="m 23.475205,44.93376 c 0.0039,-1.84581 0.534859,-5.83629 0.899489,-6.76459 0.270548,-0.68889 0.533561,-0.94516 0.969407,-0.94433 1.089205,0.002 5.925839,2.91649 5.925839,3.57028 0,0.12411 -0.73109,0.4412 -1.62434,0.70465 -2.256403,0.66485 -3.970915,1.71091 -5.16045,3.14842 l -1.012028,1.22299 z"
     style="display:inline;fill:#e93556;fill-opacity:0.851431;stroke-width:0.269294"
     id="path4193" />
  <g
     inkscape:groupmode="layer"
     id="layer4"
     inkscape:label="Calque 3"
     transform="translate(-4.2630271,-3.1409998)" />
  <g
     inkscape:groupmode="layer"
     id="layer2"
     inkscape:label="coeur"
     style="display:inline"
     transform="translate(36.021852,23.391747)">
    <path
       d="m -2.363243,74.191787 c 2.42379702,2.16906 4.753737,3.96981 7.764307,6.00102 3.1274199,2.11005 3.8071899,2.2487 5.48399,1.11813 3.178556,-2.11705 6.644275,-5.00827 9.107259,-7.63233 2.02624,-2.0241 0.08387,-1.43498 -4.967856,-1.38505 -1.33381,1.66564 -2.434255,3.10479 -3.916993,4.38821 -1.1498301,1.02843 -1.9956701,0.71702 -3.9358901,-1.44913 -0.78751,-0.87947 -1.8912539,-2.21539 -2.1547389,-2.80422 -3.399196,0.17712 -5.04366498,0.0421 -8.704149,0.008 -0.383895,-0.007 0.03438,0.60176 1.324071,1.75587 z"
       fill="#2ad6c8"
       id="path345"
       style="stroke-width:0.264583"
       sodipodi:nodetypes="csccccccccc" />
    <path
       d="m -5.402334,66.425737 c 0.002,0.80222 0.07753,1.73461 0.167873,2.07195 l 0.164258,0.61331 4.26389702,-0.15425 5.18206098,0.0975 c 1.8595849,-1.57533 2.5608399,-2.08979 4.4397489,-3.38948 0.54092,-0.28416 0.743313,-0.16881 2.2111301,1.25862 0.741355,0.72096 1.33438,1.30812 2.008751,1.69819 0.800805,0.46319 2.033859,0.25116 5.124439,0.36239 4.286248,0.15452 4.360598,0.11271 4.324618,-2.41856 -0.0312,-2.17699 -0.80751,-3.54727 -2.74347,-4.8432 -1.310898,-0.87735 -2.918348,-1.36048 -4.505848,-1.22819 -1.83621,0.15293 -2.94198,0.66119 -4.68442,2.00554 l -1.4002301,1.08003 -1.60721,-1.48775 c -2.0801099,-1.9947 -2.9200299,-2.40454 -5.2762999,-2.39131 -2.82542998,0.0159 -4.975542,1.26101 -6.763892,3.91663 -0.764582,1.13533 -0.907647,1.90394 -0.905406,2.80855 z"
       fill="#2ad6c8"
       id="path347"
       style="stroke-width:0.264583"
       sodipodi:nodetypes="ssccccsscccccccsss" />
    <path
       style="fill:#ffd63e;fill-opacity:1;stroke:#ffd63e;stroke-width:0.264583px;stroke-linecap:butt;stroke-linejoin:miter;stroke-opacity:1"
       d="m -5.37947,70.450357 10.319292,-0.2472 1.6247839,-5.26407 1.052192,3.22163 1.242568,-5.44859 2.0077341,8.27739 1.874539,-4.54257 0.557977,3.4531 9.665031,0.1299 -0.896465,1.34476 -9.285068,0.18832 -0.633434,-1.88861 -1.74007,4.60723 -1.6315451,-4.88385 -0.897625,1.90067 -1.424177,-3.35865 -1.1382419,3.52527 -10.234884,0.0188 z"
       id="path13356"
       sodipodi:nodetypes="ccccccccccccccccccc" />
  </g>
  <path
     id="path469-6"
     style="display:inline;fill:#000000;fill-opacity:1;stroke:none;stroke-width:1;stroke-dasharray:none;stroke-opacity:1"
     d="M 45.38276,0 A 45.38261,39.322826 0 0 0 0,39.32266 45.38261,39.322826 0 0 0 45.38276,78.64584 45.38261,39.322826 0 0 0 90.76552,39.32266 45.38261,39.322826 0 0 0 45.38276,0 Z m 0,2.94659 A 41.958302,36.284988 0 0 1 87.34092,39.23171 41.958302,36.284988 0 0 1 45.38276,75.51684 41.958302,36.284988 0 0 1 3.42408,39.23171 41.958302,36.284988 0 0 1 45.38276,2.94659 Z" />
  <ellipse
     style="display:none;fill:#2ca05a;fill-opacity:0.885932;stroke:none;stroke-width:0.274667;stroke-miterlimit:4;stroke-dasharray:none;stroke-opacity:0.353612"
     id="path469-3-5"
     cx="111.56358"
     cy="138.36555"
     rx="39.909504"
     ry="34.183418" />
</svg>
